<svg width="32" height="31" viewBox="0 0 32 31" fill="none" xmlns="http://www.w3.org/2000/svg">
<g clip-path="url(#clip0_1_185)">
<path d="M15.6944 30.7509C24.1005 30.7509 30.915 23.9352 30.915 15.5277C30.915 7.12012 24.1005 0.304459 15.6944 0.304459C7.28826 0.304459 0.473755 7.12012 0.473755 15.5277C0.473755 23.9352 7.28826 30.7509 15.6944 30.7509Z" fill="#3D804E"/>
<path d="M7.69662 7.75H23.6368C24.7437 7.75 25.6293 8.63571 25.6293 9.74286V21.5616C25.6293 22.6411 24.7437 23.5545 23.6368 23.5545H7.69662C6.58966 23.5545 5.7041 22.6687 5.7041 21.5616V9.74286C5.7041 8.60804 6.58966 7.75 7.69662 7.75ZM15.6667 14.642L23.6368 9.71518H7.69662L15.6667 14.642ZM7.69662 21.5062H23.6368V12.0402L15.6667 16.967L7.69662 12.0402V21.5062Z" fill="white"/>
</g>
<defs>
<clipPath id="clip0_1_185">
<rect width="30.9947" height="31" fill="white" transform="translate(0.169312)"/>
</clipPath>
</defs>
</svg>
