<svg width="32" height="31" viewBox="0 0 32 31" fill="none" xmlns="http://www.w3.org/2000/svg">
<g clip-path="url(#clip0_35_2)">
<path d="M16.361 30.7509C24.7671 30.7509 31.5816 23.9352 31.5816 15.5277C31.5816 7.12012 24.7671 0.304459 16.361 0.304459C7.95488 0.304459 1.14038 7.12012 1.14038 15.5277C1.14038 23.9352 7.95488 30.7509 16.361 30.7509Z" fill="#3D804E"/>
<path d="M5.92798 14.725L23.833 7.83304C24.6632 7.52857 25.3827 8.02679 25.1336 9.3L22.0895 23.6375C21.8681 24.6616 21.2593 24.9107 20.4014 24.4125L15.7522 20.9804L13.5106 23.1393C13.2615 23.3884 13.0402 23.5821 12.5697 23.5821L12.9018 18.8768L21.5084 11.1268C21.8958 10.7946 21.4253 10.6009 20.9272 10.933L10.3004 17.6313L5.70658 16.192C4.71033 15.8875 4.71033 15.1955 5.92798 14.725Z" fill="white"/>
</g>
<defs>
<clipPath id="clip0_35_2">
<rect width="30.9947" height="31" fill="white" transform="translate(0.835938)"/>
</clipPath>
</defs>
</svg>
