<svg width="32" height="31" viewBox="0 0 32 31" fill="none" xmlns="http://www.w3.org/2000/svg">
<g clip-path="url(#clip0_1_179)">
<path d="M16.0276 30.7509C24.4337 30.7509 31.2482 23.9352 31.2482 15.5277C31.2482 7.12012 24.4337 0.304459 16.0276 0.304459C7.62151 0.304459 0.807007 7.12012 0.807007 15.5277C0.807007 23.9352 7.62151 30.7509 16.0276 30.7509Z" fill="#3D804E"/>
<path d="M23.6932 7.83304C21.8668 6.00625 19.4315 4.98215 16.8301 4.98215C11.4891 4.98215 7.11659 9.32768 7.11659 14.6973C7.11659 16.4134 7.55937 18.0741 8.41726 19.5411L7.03357 24.5786L12.1809 23.25C13.5923 24.025 15.1974 24.4402 16.8301 24.4402C22.1712 24.4402 26.5436 20.0946 26.5436 14.725C26.5436 12.1232 25.5474 9.6875 23.6932 7.83304ZM16.8301 22.7795C15.3911 22.7795 13.952 22.392 12.7067 21.6446L12.4023 21.4786L9.35817 22.2813L10.1884 19.3196L9.99467 19.0152C9.19213 17.742 8.74935 16.2473 8.74935 14.725C8.74935 10.2411 12.3746 6.64286 16.8301 6.64286C18.9887 6.64286 21.0089 7.47322 22.5309 9.02322C24.053 10.5455 24.8832 12.5661 24.8832 14.725C24.9109 19.1536 21.2856 22.7795 16.8301 22.7795ZM21.2579 16.7455C21.0089 16.6348 19.8189 16.0259 19.5975 15.9429C19.3761 15.8598 19.2101 15.8321 19.044 16.0536C18.878 16.275 18.4075 16.8563 18.2692 16.9946C18.1308 17.1607 17.9924 17.1884 17.7433 17.05C17.4943 16.9393 16.7194 16.6625 15.7785 15.8321C15.059 15.1955 14.5609 14.3929 14.4225 14.1438C14.2841 13.8946 14.3948 13.7563 14.5332 13.6455C14.6439 13.5348 14.7822 13.3688 14.8929 13.2304C15.0036 13.092 15.059 12.9813 15.142 12.8152C15.225 12.6491 15.1697 12.5107 15.1143 12.4C15.059 12.2893 14.5609 11.0714 14.3671 10.6009C14.1734 10.1304 13.9797 10.1857 13.8137 10.1857C13.6753 10.1857 13.5093 10.1857 13.3432 10.1857C13.1772 10.1857 12.9281 10.2411 12.7067 10.4902C12.4853 10.7393 11.8488 11.3205 11.8488 12.5107C11.8488 13.7009 12.7067 14.8634 12.8451 15.0295C12.9558 15.1955 14.5609 17.6313 16.9962 18.683C17.5773 18.9321 18.0201 19.0705 18.3798 19.1813C18.961 19.375 19.4868 19.3473 19.9019 19.2643C20.3724 19.1813 21.3409 18.683 21.5347 18.1018C21.7284 17.5482 21.7284 17.05 21.673 16.9393C21.673 16.9116 21.507 16.8563 21.2579 16.7455Z" fill="white"/>
</g>
<defs>
<clipPath id="clip0_1_179">
<rect width="30.9947" height="31" fill="white" transform="translate(0.502563)"/>
</clipPath>
</defs>
</svg>
